<?xml version="1.0" encoding="UTF-8" standalone="no"?><svg xmlns="http://www.w3.org/2000/svg" xmlns:xlink="http://www.w3.org/1999/xlink" contentScriptType="application/ecmascript" contentStyleType="text/css" height="274px" preserveAspectRatio="none" style="width:324px;height:274px;" version="1.1" viewBox="0 0 324 274" width="324px" zoomAndPan="magnify"><defs><filter height="300%" id="fpd325j8e2x3z" width="300%" x="-1" y="-1"><feGaussianBlur result="blurOut" stdDeviation="2.0"/><feColorMatrix in="blurOut" result="blurOut2" type="matrix" values="0 0 0 0 0 0 0 0 0 0 0 0 0 0 0 0 0 0 .4 0"/><feOffset dx="4.0" dy="4.0" in="blurOut2" result="blurOut3"/><feBlend in="SourceGraphic" in2="blurOut3" mode="normal"/></filter></defs><g><text fill="#000000" font-family="sans-serif" font-size="14" font-weight="bold" lengthAdjust="spacingAndGlyphs" textLength="172" x="76.75" y="23.5352">Facade Pattern Behavior</text><rect fill="#FFFFFF" filter="url(#fpd325j8e2x3z)" height="143.9316" style="stroke: #A80036; stroke-width: 1.0;" width="10" x="113" y="100.2871"/><rect fill="#FFFFFF" filter="url(#fpd325j8e2x3z)" height="14" style="stroke: #A80036; stroke-width: 1.0;" width="10" x="184.5" y="129.5977"/><rect fill="#FFFFFF" filter="url(#fpd325j8e2x3z)" height="14" style="stroke: #A80036; stroke-width: 1.0;" width="10" x="238" y="172.9082"/><rect fill="#FFFFFF" filter="url(#fpd325j8e2x3z)" height="14" style="stroke: #A80036; stroke-width: 1.0;" width="10" x="291" y="216.2188"/><line style="stroke: #A80036; stroke-width: 1.0; stroke-dasharray: 5.0,5.0;" x1="117.5" x2="117.5" y1="68.9766" y2="262.2188"/><line style="stroke: #A80036; stroke-width: 1.0; stroke-dasharray: 5.0,5.0;" x1="189.5" x2="189.5" y1="68.9766" y2="262.2188"/><line style="stroke: #A80036; stroke-width: 1.0; stroke-dasharray: 5.0,5.0;" x1="242.5" x2="242.5" y1="68.9766" y2="262.2188"/><line style="stroke: #A80036; stroke-width: 1.0; stroke-dasharray: 5.0,5.0;" x1="295.5" x2="295.5" y1="68.9766" y2="262.2188"/><rect fill="#FEFECE" filter="url(#fpd325j8e2x3z)" height="30.4883" style="stroke: #A80036; stroke-width: 1.5;" width="75" x="78.5" y="33.4883"/><text fill="#000000" font-family="sans-serif" font-size="14" lengthAdjust="spacingAndGlyphs" textLength="61" x="85.5" y="54.0234">f: Facade</text><rect fill="#FEFECE" filter="url(#fpd325j8e2x3z)" height="30.4883" style="stroke: #A80036; stroke-width: 1.5;" width="40" x="167.5" y="33.4883"/><text fill="#000000" font-family="sans-serif" font-size="14" lengthAdjust="spacingAndGlyphs" textLength="26" x="174.5" y="54.0234">a: A</text><rect fill="#FEFECE" filter="url(#fpd325j8e2x3z)" height="30.4883" style="stroke: #A80036; stroke-width: 1.5;" width="39" x="221.5" y="33.4883"/><text fill="#000000" font-family="sans-serif" font-size="14" lengthAdjust="spacingAndGlyphs" textLength="25" x="228.5" y="54.0234">b: B</text><rect fill="#FEFECE" filter="url(#fpd325j8e2x3z)" height="30.4883" style="stroke: #A80036; stroke-width: 1.5;" width="39" x="274.5" y="33.4883"/><text fill="#000000" font-family="sans-serif" font-size="14" lengthAdjust="spacingAndGlyphs" textLength="25" x="281.5" y="54.0234">c: C</text><rect fill="#FFFFFF" filter="url(#fpd325j8e2x3z)" height="143.9316" style="stroke: #A80036; stroke-width: 1.0;" width="10" x="113" y="100.2871"/><rect fill="#FFFFFF" filter="url(#fpd325j8e2x3z)" height="14" style="stroke: #A80036; stroke-width: 1.0;" width="10" x="184.5" y="129.5977"/><rect fill="#FFFFFF" filter="url(#fpd325j8e2x3z)" height="14" style="stroke: #A80036; stroke-width: 1.0;" width="10" x="238" y="172.9082"/><rect fill="#FFFFFF" filter="url(#fpd325j8e2x3z)" height="14" style="stroke: #A80036; stroke-width: 1.0;" width="10" x="291" y="216.2188"/><polygon fill="#A80036" points="101,96.2871,111,100.2871,101,104.2871,105,100.2871" style="stroke: #A80036; stroke-width: 1.0;"/><line style="stroke: #A80036; stroke-width: 1.0;" x1="3" x2="107" y1="100.2871" y2="100.2871"/><text fill="#000000" font-family="sans-serif" font-size="13" lengthAdjust="spacingAndGlyphs" textLength="91" x="10" y="95.5449">doSomething()</text><polygon fill="#A80036" points="172.5,125.5977,182.5,129.5977,172.5,133.5977,176.5,129.5977" style="stroke: #A80036; stroke-width: 1.0;"/><line style="stroke: #A80036; stroke-width: 1.0;" x1="123" x2="178.5" y1="129.5977" y2="129.5977"/><text fill="#000000" font-family="sans-serif" font-size="13" lengthAdjust="spacingAndGlyphs" textLength="23" x="130" y="124.8555">a2()</text><polygon fill="#A80036" points="134,139.5977,124,143.5977,134,147.5977,130,143.5977" style="stroke: #A80036; stroke-width: 1.0;"/><line style="stroke: #A80036; stroke-width: 1.0; stroke-dasharray: 2.0,2.0;" x1="128" x2="188.5" y1="143.5977" y2="143.5977"/><polygon fill="#A80036" points="226,168.9082,236,172.9082,226,176.9082,230,172.9082" style="stroke: #A80036; stroke-width: 1.0;"/><line style="stroke: #A80036; stroke-width: 1.0;" x1="123" x2="232" y1="172.9082" y2="172.9082"/><text fill="#000000" font-family="sans-serif" font-size="13" lengthAdjust="spacingAndGlyphs" textLength="24" x="130" y="168.166">b3()</text><polygon fill="#A80036" points="134,182.9082,124,186.9082,134,190.9082,130,186.9082" style="stroke: #A80036; stroke-width: 1.0;"/><line style="stroke: #A80036; stroke-width: 1.0; stroke-dasharray: 2.0,2.0;" x1="128" x2="242" y1="186.9082" y2="186.9082"/><polygon fill="#A80036" points="279,212.2188,289,216.2188,279,220.2188,283,216.2188" style="stroke: #A80036; stroke-width: 1.0;"/><line style="stroke: #A80036; stroke-width: 1.0;" x1="123" x2="285" y1="216.2188" y2="216.2188"/><text fill="#000000" font-family="sans-serif" font-size="13" lengthAdjust="spacingAndGlyphs" textLength="23" x="130" y="211.4766">c1()</text><polygon fill="#A80036" points="134,226.2188,124,230.2188,134,234.2188,130,230.2188" style="stroke: #A80036; stroke-width: 1.0;"/><line style="stroke: #A80036; stroke-width: 1.0; stroke-dasharray: 2.0,2.0;" x1="128" x2="295" y1="230.2188" y2="230.2188"/><polygon fill="#A80036" points="14,240.2188,4,244.2188,14,248.2188,10,244.2188" style="stroke: #A80036; stroke-width: 1.0;"/><line style="stroke: #A80036; stroke-width: 1.0; stroke-dasharray: 2.0,2.0;" x1="8" x2="117" y1="244.2188" y2="244.2188"/><!--
@startuml

hide footbox
title Facade Pattern Behavior

participant "f: Facade" as F
participant "a: A" as A
participant "b: B" as B
participant "c: C" as C


[-> F: doSomething()
activate F
F -> A: a2()
activate A
A - -> F
deactivate A
F -> B: b3()
activate B
B - -> F
deactivate B
F -> C: c1()
activate C
C - -> F
deactivate C
[<- - F
deactivate F

@enduml

PlantUML version 1.2018.13(Mon Nov 26 12:11:51 EST 2018)
(APACHE source distribution)
Java Runtime: Java(TM) SE Runtime Environment
JVM: Java HotSpot(TM) 64-Bit Server VM
Java Version: 1.8.0_152-b16
Operating System: Mac OS X
OS Version: 10.14.5
Default Encoding: UTF-8
Language: fr
Country: FR
--></g></svg>