<?xml version="1.0" encoding="UTF-8" standalone="no"?><svg xmlns="http://www.w3.org/2000/svg" xmlns:xlink="http://www.w3.org/1999/xlink" contentScriptType="application/ecmascript" contentStyleType="text/css" height="361px" preserveAspectRatio="none" style="width:359px;height:361px;" version="1.1" viewBox="0 0 359 361" width="359px" zoomAndPan="magnify"><defs><filter height="300%" id="f1al2uqyu6tnm1" width="300%" x="-1" y="-1"><feGaussianBlur result="blurOut" stdDeviation="2.0"/><feColorMatrix in="blurOut" result="blurOut2" type="matrix" values="0 0 0 0 0 0 0 0 0 0 0 0 0 0 0 0 0 0 .4 0"/><feOffset dx="4.0" dy="4.0" in="blurOut2" result="blurOut3"/><feBlend in="SourceGraphic" in2="blurOut3" mode="normal"/></filter></defs><g><!--cluster subsystem--><polygon fill="#FFFFFF" filter="url(#f1al2uqyu6tnm1)" points="14,16,98,16,105,38.4883,197,38.4883,197,349,14,349,14,16" style="stroke: #000000; stroke-width: 1.5;"/><line style="stroke: #000000; stroke-width: 1.5;" x1="14" x2="105" y1="38.4883" y2="38.4883"/><text fill="#000000" font-family="sans-serif" font-size="14" font-weight="bold" lengthAdjust="spacingAndGlyphs" textLength="78" x="18" y="31.5352">subsystem</text><!--class subsystem.A--><rect fill="#FEFECE" filter="url(#f1al2uqyu6tnm1)" height="65.9102" id="subsystem.A" style="stroke: #A80036; stroke-width: 1.5;" width="47" x="99.5" y="43"/><ellipse cx="117.65" cy="59" fill="#ADD1B2" rx="11" ry="11" style="stroke: #A80036; stroke-width: 1.0;"/><path d="M120.1231,65.1431 Q119.5421,65.4419 118.9029,65.5913 Q118.2638,65.7407 117.5582,65.7407 Q115.0514,65.7407 113.7315,64.0889 Q112.4117,62.437 112.4117,59.3159 Q112.4117,56.1865 113.7315,54.5347 Q115.0514,52.8828 117.5582,52.8828 Q118.2638,52.8828 118.9112,53.0322 Q119.5587,53.1816 120.1231,53.4805 L120.1231,56.2031 Q119.4923,55.6221 118.8988,55.3523 Q118.3053,55.0825 117.6744,55.0825 Q116.3297,55.0825 115.6449,56.1492 Q114.9601,57.2158 114.9601,59.3159 Q114.9601,61.4077 115.6449,62.4744 Q116.3297,63.541 117.6744,63.541 Q118.3053,63.541 118.8988,63.2712 Q119.4923,63.0015 120.1231,62.4204 Z "/><text fill="#000000" font-family="sans-serif" font-size="12" lengthAdjust="spacingAndGlyphs" textLength="8" x="132.35" y="63.5352">A</text><line style="stroke: #A80036; stroke-width: 1.5;" x1="100.5" x2="145.5" y1="75" y2="75"/><ellipse cx="110.5" cy="86.9775" fill="#84BE84" rx="3" ry="3" style="stroke: #038048; stroke-width: 1.0;"/><text fill="#000000" font-family="sans-serif" font-size="11" lengthAdjust="spacingAndGlyphs" textLength="21" x="119.5" y="89.6348">a1()</text><ellipse cx="110.5" cy="99.9326" fill="#84BE84" rx="3" ry="3" style="stroke: #038048; stroke-width: 1.0;"/><text fill="#000000" font-family="sans-serif" font-size="11" lengthAdjust="spacingAndGlyphs" textLength="21" x="119.5" y="102.5898">a2()</text><!--class subsystem.B--><rect fill="#FEFECE" filter="url(#f1al2uqyu6tnm1)" height="78.8652" id="subsystem.B" style="stroke: #A80036; stroke-width: 1.5;" width="48" x="141" y="159"/><ellipse cx="160.05" cy="175" fill="#ADD1B2" rx="11" ry="11" style="stroke: #A80036; stroke-width: 1.0;"/><path d="M162.5231,181.1431 Q161.9421,181.4419 161.3029,181.5913 Q160.6638,181.7407 159.9582,181.7407 Q157.4514,181.7407 156.1315,180.0889 Q154.8117,178.437 154.8117,175.3159 Q154.8117,172.1865 156.1315,170.5347 Q157.4514,168.8828 159.9582,168.8828 Q160.6638,168.8828 161.3112,169.0322 Q161.9587,169.1816 162.5231,169.4805 L162.5231,172.2031 Q161.8923,171.6221 161.2988,171.3523 Q160.7053,171.0825 160.0744,171.0825 Q158.7297,171.0825 158.0449,172.1492 Q157.3601,173.2158 157.3601,175.3159 Q157.3601,177.4077 158.0449,178.4744 Q158.7297,179.541 160.0744,179.541 Q160.7053,179.541 161.2988,179.2712 Q161.8923,179.0015 162.5231,178.4204 Z "/><text fill="#000000" font-family="sans-serif" font-size="12" lengthAdjust="spacingAndGlyphs" textLength="7" x="174.95" y="179.5352">B</text><line style="stroke: #A80036; stroke-width: 1.5;" x1="142" x2="188" y1="191" y2="191"/><ellipse cx="152" cy="202.9775" fill="#84BE84" rx="3" ry="3" style="stroke: #038048; stroke-width: 1.0;"/><text fill="#000000" font-family="sans-serif" font-size="11" lengthAdjust="spacingAndGlyphs" textLength="22" x="161" y="205.6348">b1()</text><ellipse cx="152" cy="215.9326" fill="#84BE84" rx="3" ry="3" style="stroke: #038048; stroke-width: 1.0;"/><text fill="#000000" font-family="sans-serif" font-size="11" lengthAdjust="spacingAndGlyphs" textLength="22" x="161" y="218.5898">b2()</text><ellipse cx="152" cy="228.8877" fill="#84BE84" rx="3" ry="3" style="stroke: #038048; stroke-width: 1.0;"/><text fill="#000000" font-family="sans-serif" font-size="11" lengthAdjust="spacingAndGlyphs" textLength="22" x="161" y="231.5449">b3()</text><!--class subsystem.C--><rect fill="#FEFECE" filter="url(#f1al2uqyu6tnm1)" height="52.9551" id="subsystem.C" style="stroke: #A80036; stroke-width: 1.5;" width="47" x="141.5" y="288"/><ellipse cx="159.65" cy="304" fill="#ADD1B2" rx="11" ry="11" style="stroke: #A80036; stroke-width: 1.0;"/><path d="M162.1231,310.1431 Q161.5421,310.4419 160.9029,310.5913 Q160.2638,310.7407 159.5582,310.7407 Q157.0514,310.7407 155.7315,309.0889 Q154.4117,307.437 154.4117,304.3159 Q154.4117,301.1865 155.7315,299.5347 Q157.0514,297.8828 159.5582,297.8828 Q160.2638,297.8828 160.9112,298.0322 Q161.5587,298.1816 162.1231,298.4805 L162.1231,301.2031 Q161.4923,300.6221 160.8988,300.3523 Q160.3053,300.0825 159.6744,300.0825 Q158.3297,300.0825 157.6449,301.1492 Q156.9601,302.2158 156.9601,304.3159 Q156.9601,306.4077 157.6449,307.4744 Q158.3297,308.541 159.6744,308.541 Q160.3053,308.541 160.8988,308.2712 Q161.4923,308.0015 162.1231,307.4204 Z "/><text fill="#000000" font-family="sans-serif" font-size="12" lengthAdjust="spacingAndGlyphs" textLength="8" x="174.35" y="308.5352">C</text><line style="stroke: #A80036; stroke-width: 1.5;" x1="142.5" x2="187.5" y1="320" y2="320"/><ellipse cx="152.5" cy="331.9775" fill="#84BE84" rx="3" ry="3" style="stroke: #038048; stroke-width: 1.0;"/><text fill="#000000" font-family="sans-serif" font-size="11" lengthAdjust="spacingAndGlyphs" textLength="21" x="161.5" y="334.6348">c1()</text><!--class subsystem.D--><rect fill="#FEFECE" filter="url(#f1al2uqyu6tnm1)" height="32" id="subsystem.D" style="stroke: #A80036; stroke-width: 1.5;" width="44" x="22" y="182.5"/><ellipse cx="37" cy="198.5" fill="#ADD1B2" rx="11" ry="11" style="stroke: #A80036; stroke-width: 1.0;"/><path d="M39.4731,204.6431 Q38.8921,204.9419 38.2529,205.0913 Q37.6138,205.2407 36.9082,205.2407 Q34.4014,205.2407 33.0815,203.5889 Q31.7617,201.937 31.7617,198.8159 Q31.7617,195.6865 33.0815,194.0347 Q34.4014,192.3828 36.9082,192.3828 Q37.6138,192.3828 38.2612,192.5322 Q38.9087,192.6816 39.4731,192.9805 L39.4731,195.7031 Q38.8423,195.1221 38.2488,194.8523 Q37.6553,194.5825 37.0244,194.5825 Q35.6797,194.5825 34.9949,195.6492 Q34.3101,196.7158 34.3101,198.8159 Q34.3101,200.9077 34.9949,201.9744 Q35.6797,203.041 37.0244,203.041 Q37.6553,203.041 38.2488,202.7712 Q38.8423,202.5015 39.4731,201.9204 Z "/><text fill="#000000" font-family="sans-serif" font-size="12" lengthAdjust="spacingAndGlyphs" textLength="12" x="51" y="203.0352">...</text><!--class Facade--><rect fill="#FEFECE" filter="url(#f1al2uqyu6tnm1)" height="65.9102" id="Facade" style="stroke: #A80036; stroke-width: 1.5;" width="126" x="222" y="43"/><ellipse cx="260.85" cy="59" fill="#ADD1B2" rx="11" ry="11" style="stroke: #A80036; stroke-width: 1.0;"/><path d="M263.3231,65.1431 Q262.7421,65.4419 262.1029,65.5913 Q261.4638,65.7407 260.7582,65.7407 Q258.2514,65.7407 256.9315,64.0889 Q255.6117,62.437 255.6117,59.3159 Q255.6117,56.1865 256.9315,54.5347 Q258.2514,52.8828 260.7582,52.8828 Q261.4638,52.8828 262.1112,53.0322 Q262.7587,53.1816 263.3231,53.4805 L263.3231,56.2031 Q262.6923,55.6221 262.0988,55.3523 Q261.5053,55.0825 260.8744,55.0825 Q259.5297,55.0825 258.8449,56.1492 Q258.1601,57.2158 258.1601,59.3159 Q258.1601,61.4077 258.8449,62.4744 Q259.5297,63.541 260.8744,63.541 Q261.5053,63.541 262.0988,63.2712 Q262.6923,63.0015 263.3231,62.4204 Z "/><text fill="#000000" font-family="sans-serif" font-size="12" lengthAdjust="spacingAndGlyphs" textLength="41" x="280.15" y="63.5352">Facade</text><line style="stroke: #A80036; stroke-width: 1.5;" x1="223" x2="347" y1="75" y2="75"/><ellipse cx="233" cy="86.9775" fill="#84BE84" rx="3" ry="3" style="stroke: #038048; stroke-width: 1.0;"/><text fill="#000000" font-family="sans-serif" font-size="11" lengthAdjust="spacingAndGlyphs" textLength="79" x="242" y="89.6348">doSomething()</text><ellipse cx="233" cy="99.9326" fill="#84BE84" rx="3" ry="3" style="stroke: #038048; stroke-width: 1.0;"/><text fill="#000000" font-family="sans-serif" font-size="11" lengthAdjust="spacingAndGlyphs" textLength="100" x="242" y="102.5898">doSomethingElse()</text><!--link Facade to subsystem.A--><path d="M221.8065,76 C196.7812,76 171.7558,76 146.7305,76 " fill="none" id="Facade-subsystem.A" style="stroke: #A80036; stroke-width: 1.0; stroke-dasharray: 7.0,7.0;"/><!--link Facade to subsystem.B--><path d="M252.5263,109.1503 C232.5359,129.5571 207.3408,155.2771 189.1214,173.8761 " fill="none" id="Facade-subsystem.B" style="stroke: #A80036; stroke-width: 1.0; stroke-dasharray: 7.0,7.0;"/><!--link Facade to subsystem.C--><path d="M276.7088,109.0522 C267.4425,142.8143 250.5819,196.0821 227,238 C216.4386,256.7733 201.2542,275.5987 188.556,289.877 " fill="none" id="Facade-subsystem.C" style="stroke: #A80036; stroke-width: 1.0; stroke-dasharray: 7.0,7.0;"/><!--link subsystem.B to subsystem.A--><path d="M149.6864,153.8354 C144.622,139.0641 139.0803,122.901 134.3658,109.1503 " fill="none" id="subsystem.B-subsystem.A" style="stroke: #A80036; stroke-width: 1.0;"/><polygon fill="#A80036" points="151.3837,158.7859,152.2484,148.9751,149.762,154.0562,144.6809,151.5698,151.3837,158.7859" style="stroke: #A80036; stroke-width: 1.0;"/><!--link subsystem.B to subsystem.C--><path d="M165,238.0962 C165,252.5817 165,268.7758 165,282.5138 " fill="none" id="subsystem.B-subsystem.C" style="stroke: #A80036; stroke-width: 1.0;"/><polygon fill="#A80036" points="165,287.8452,169,278.8452,165,282.8452,161,278.8452,165,287.8452" style="stroke: #A80036; stroke-width: 1.0;"/><!--link subsystem.A to subsystem.D--><path d="M98.8937,113.3801 C84.0576,136.3853 65.7869,164.7165 54.5167,182.1924 " fill="none" id="subsystem.A-subsystem.D" style="stroke: #A80036; stroke-width: 1.0;"/><polygon fill="#A80036" points="101.6215,109.1503,93.3822,114.546,98.9116,113.3523,100.1054,118.8818,101.6215,109.1503" style="stroke: #A80036; stroke-width: 1.0;"/><!--link subsystem.D to subsystem.B--><path d="M71.4513,198.5 C94.5308,198.5 117.6102,198.5 140.6896,198.5 " fill="none" id="subsystem.D-subsystem.B" style="stroke: #A80036; stroke-width: 1.0;"/><polygon fill="#A80036" points="66.2148,198.5,75.2148,202.5,71.2148,198.5,75.2148,194.5,66.2148,198.5" style="stroke: #A80036; stroke-width: 1.0;"/><!--
@startuml

skinparam nodesep 75
skinparam ranksep 50
hide empty members

class Facade {
  + doSomething()
  + doSomethingElse()
}

Facade . subsystem.A
Facade . subsystem.B
Facade . subsystem.C

package subsystem  {

  class A {
    + a1()
    + a2()
  }

  class B {
    + b1()
    + b2()
    + b3()
  }

  class C {
    + c1()
  }

  class D as "..."

  B <-  A
  B - -> C
  A <- - D
  D <- B

}


@enduml

PlantUML version 1.2018.13(Mon Nov 26 12:11:51 EST 2018)
(APACHE source distribution)
Java Runtime: Java(TM) SE Runtime Environment
JVM: Java HotSpot(TM) 64-Bit Server VM
Java Version: 1.8.0_152-b16
Operating System: Mac OS X
OS Version: 10.14.5
Default Encoding: UTF-8
Language: fr
Country: FR
--></g></svg>